<svg xmlns="http://www.w3.org/2000/svg" xmlns:xlink="http://www.w3.org/1999/xlink" width="500" zoomAndPan="magnify" viewBox="0 0 375 374.999991" height="500" preserveAspectRatio="xMidYMid meet" version="1.0"><defs><g/><clipPath id="334f02b8a6"><path d="M 13.441406 100.992188 L 361.441406 100.992188 L 361.441406 274 L 13.441406 274 Z M 13.441406 100.992188 " clip-rule="nonzero"/></clipPath></defs><g clip-path="url(#334f02b8a6)"><path fill="#a14024" d="M 308.394531 181.644531 C 322.003906 195.257812 340.800781 203.679688 361.546875 203.679688 L 361.546875 194.59375 C 343.308594 194.59375 326.773438 187.179688 314.796875 175.242188 C 302.824219 163.265625 295.445312 146.730469 295.445312 128.492188 L 295.445312 100.992188 L 286.359375 100.992188 L 286.359375 219.902344 L 262.6875 219.902344 L 262.6875 100.992188 L 253.601562 100.992188 L 253.601562 130.058594 C 253.183594 147.671875 245.875 163.613281 234.25 175.277344 C 222.273438 187.25 205.738281 194.628906 187.5 194.628906 C 169.257812 194.628906 152.722656 187.214844 140.75 175.277344 C 128.808594 163.335938 121.429688 146.835938 121.394531 128.632812 L 121.394531 100.992188 L 112.308594 100.992188 L 112.308594 219.867188 L 88.640625 219.867188 L 88.640625 100.992188 L 79.554688 100.992188 L 79.554688 130.058594 C 79.136719 147.671875 71.828125 163.613281 60.199219 175.277344 C 48.226562 187.214844 31.691406 194.59375 13.449219 194.59375 L 13.449219 203.679688 C 34.199219 203.679688 52.996094 195.257812 66.605469 181.644531 C 71.722656 176.53125 76.074219 170.714844 79.554688 164.3125 L 79.554688 219.902344 L 13.449219 219.902344 L 13.449219 228.988281 L 79.554688 228.988281 L 79.554688 264.910156 L 65.5625 264.910156 L 65.5625 273.996094 L 135.390625 273.996094 L 135.390625 264.910156 L 121.394531 264.910156 L 121.394531 228.953125 L 253.601562 228.953125 L 253.601562 264.875 L 239.609375 264.875 L 239.609375 273.960938 L 309.4375 273.960938 L 309.4375 264.875 L 295.445312 264.875 L 295.445312 228.953125 L 361.546875 228.953125 L 361.546875 219.867188 L 295.445312 219.867188 L 295.445312 164.3125 C 298.890625 170.714844 303.277344 176.5625 308.394531 181.644531 Z M 112.308594 264.875 L 88.640625 264.875 L 88.640625 228.953125 L 112.308594 228.953125 Z M 253.601562 219.902344 L 121.394531 219.902344 L 121.394531 164.3125 C 124.875 170.714844 129.226562 176.53125 134.34375 181.644531 C 147.957031 195.257812 166.753906 203.679688 187.5 203.679688 C 208.246094 203.679688 227.042969 195.257812 240.652344 181.644531 C 245.769531 176.53125 250.121094 170.714844 253.601562 164.3125 Z M 286.359375 264.875 L 262.6875 264.875 L 262.6875 228.953125 L 286.359375 228.953125 Z M 286.359375 264.875 " fill-opacity="1" fill-rule="nonzero"/></g><path stroke-linecap="butt" transform="matrix(1.728047, 0, 0, 1.728047, 92.411696, 90.167272)" fill="none" stroke-linejoin="miter" d="M 58.197927 63.26274 L 52.379402 63.26274 C 50.550658 66.587935 48.055066 69.320879 44.879064 71.278471 C 41.700802 73.328744 38.154079 74.30754 34.367742 74.30754 C 28.69841 74.30754 23.85868 72.257267 19.83047 68.027873 C 15.897201 64.020008 14.011945 59.105682 14.011945 53.343669 C 14.011945 47.597479 15.897201 42.685414 19.83047 38.602952 C 21.659214 36.699611 23.85868 35.185077 26.352011 34.059348 C 28.770746 32.931359 31.19174 32.321024 33.610475 32.321024 C 35.956873 32.321024 37.989062 32.61715 39.817806 33.152888 C 45.340206 34.816615 49.497265 38.13955 52.304805 43.221152 L 58.123331 43.221152 C 56.165738 38.363339 53.062072 34.42781 48.739997 31.416824 C 44.36141 28.387755 39.578193 26.873221 34.367742 26.873221 C 27.183875 26.873221 21.123476 29.513484 16.136814 34.742019 C 13.790416 37.160753 11.961672 40.04289 10.68675 43.221152 C 9.321409 46.397154 8.711074 49.796945 8.711074 53.343669 C 8.711074 60.620216 11.132069 66.734867 16.136814 71.888806 C 21.123476 77.189677 27.183875 79.757604 34.367742 79.757604 C 39.578193 79.757604 44.36141 78.24307 48.812333 75.214001 C 53.136669 72.184931 56.238074 68.249402 58.197927 63.26274 Z M 99.736864 64.702678 C 99.736864 61.063274 98.830404 57.961869 97.076257 55.540874 C 95.265597 53.12214 92.846862 51.458412 89.890129 50.626548 C 91.646537 49.869281 93.142988 48.503939 94.2868 46.47175 C 94.822539 45.56529 95.193261 44.643006 95.487126 43.66421 C 95.801335 42.685414 95.950528 41.317812 95.950528 39.581748 C 95.950528 37.918021 95.487126 36.181957 94.729858 34.52049 C 92.478401 29.90229 87.545991 27.555891 80.063738 27.555891 L 66.136801 27.555891 L 66.136801 79.000337 L 81.874398 79.000337 C 87.102933 79.000337 91.257731 77.872348 94.435993 75.43553 C 96.022864 74.235204 97.31587 72.646073 98.296926 70.670397 C 99.201126 68.78514 99.736864 66.827548 99.736864 64.702678 Z M 90.649657 40.413612 C 90.649657 43.221152 89.817793 45.253341 88.154065 46.618683 C 86.492598 47.986285 84.295393 48.668956 81.578273 48.668956 L 71.437672 48.668956 L 71.437672 32.61715 L 80.063738 32.61715 C 87.102933 32.61715 90.649657 35.277757 90.649657 40.413612 Z M 94.435993 63.649286 C 94.435993 66.734867 93.382601 69.246282 91.257731 71.131539 C 89.207458 73.014535 86.567195 73.939079 83.388933 73.939079 L 71.437672 73.939079 L 71.437672 53.951743 L 84.220796 53.951743 C 86.881404 53.951743 89.207458 54.858203 91.257731 56.686947 C 92.164191 57.516551 92.921459 58.495347 93.529533 59.623336 C 94.139868 60.841745 94.435993 62.134751 94.435993 63.649286 Z M 94.435993 63.649286 " stroke="#ffffff" stroke-width="5.674822" stroke-opacity="1" stroke-miterlimit="4"/><g fill="#000000" fill-opacity="1"><g transform="translate(101.591947, 226.683011)"><g><path d="M 91.390625 -27.195312 L 81.324219 -27.195312 C 78.183594 -21.441406 73.871094 -16.734375 68.378906 -13.335938 C 62.886719 -9.804688 56.742188 -8.105469 50.207031 -8.105469 C 40.398438 -8.105469 32.03125 -11.636719 25.101562 -18.957031 C 18.304688 -25.886719 15.035156 -34.386719 15.035156 -44.320312 C 15.035156 -54.257812 18.304688 -62.757812 25.101562 -69.816406 C 28.242188 -73.085938 32.03125 -75.699219 36.347656 -77.660156 C 40.53125 -79.625 44.714844 -80.667969 48.898438 -80.667969 C 52.953125 -80.667969 56.480469 -80.144531 59.621094 -79.230469 C 69.164062 -76.355469 76.355469 -70.601562 81.191406 -61.84375 L 91.257812 -61.84375 C 87.859375 -70.210938 82.5 -77.007812 75.046875 -82.238281 C 67.464844 -87.46875 59.226562 -90.082031 50.207031 -90.082031 C 37.785156 -90.082031 27.324219 -85.507812 18.695312 -76.484375 C 14.644531 -72.300781 11.503906 -67.332031 9.28125 -61.84375 C 6.929688 -56.351562 5.882812 -50.46875 5.882812 -44.320312 C 5.882812 -31.769531 10.066406 -21.179688 18.695312 -12.289062 C 27.324219 -3.136719 37.785156 1.308594 50.207031 1.308594 C 59.226562 1.308594 67.464844 -1.308594 75.179688 -6.539062 C 82.628906 -11.765625 87.992188 -18.566406 91.390625 -27.195312 Z M 91.390625 -27.195312 "/></g></g></g><g fill="#000000" fill-opacity="1"><g transform="translate(196.899549, 226.683011)"><g><path d="M 67.855469 -24.710938 C 67.855469 -30.988281 66.289062 -36.347656 63.28125 -40.53125 C 60.140625 -44.714844 55.957031 -47.589844 50.859375 -49.027344 C 53.867188 -50.335938 56.480469 -52.691406 58.441406 -56.21875 C 59.359375 -57.789062 60.011719 -59.359375 60.535156 -61.058594 C 61.058594 -62.757812 61.320312 -65.109375 61.320312 -68.117188 C 61.320312 -70.992188 60.535156 -74 59.226562 -76.878906 C 55.304688 -84.851562 46.804688 -88.90625 33.863281 -88.90625 L 9.804688 -88.90625 L 9.804688 0 L 37 0 C 46.023438 0 53.210938 -1.960938 58.703125 -6.144531 C 61.449219 -8.238281 63.671875 -10.984375 65.371094 -14.382812 C 66.941406 -17.652344 67.855469 -21.050781 67.855469 -24.710938 Z M 52.167969 -66.679688 C 52.167969 -61.84375 50.730469 -58.3125 47.851562 -55.957031 C 44.976562 -53.605469 41.183594 -52.429688 36.476562 -52.429688 L 18.957031 -52.429688 L 18.957031 -80.144531 L 33.863281 -80.144531 C 46.023438 -80.144531 52.167969 -75.570312 52.167969 -66.679688 Z M 58.703125 -26.542969 C 58.703125 -21.179688 56.875 -16.867188 53.210938 -13.597656 C 49.683594 -10.328125 45.105469 -8.761719 39.617188 -8.761719 L 18.957031 -8.761719 L 18.957031 -43.277344 L 41.054688 -43.277344 C 45.628906 -43.277344 49.683594 -41.707031 53.210938 -38.570312 C 54.78125 -37.132812 56.089844 -35.433594 57.136719 -33.46875 C 58.179688 -31.378906 58.703125 -29.15625 58.703125 -26.542969 Z M 58.703125 -26.542969 "/></g></g></g></svg>