<svg xmlns="http://www.w3.org/2000/svg" xmlns:xlink="http://www.w3.org/1999/xlink" width="700" zoomAndPan="magnify" viewBox="0 0 525 112.499997" height="150" preserveAspectRatio="xMidYMid meet" version="1.0"><defs><g/><clipPath id="d25157035c"><path d="M 126 5 L 523.835938 5 L 523.835938 112.003906 L 126 112.003906 Z M 126 5 " clip-rule="nonzero"/></clipPath><clipPath id="ff900e9899"><path d="M 15.496094 29.054688 L 123.765625 29.054688 L 123.765625 82.8125 L 15.496094 82.8125 Z M 15.496094 29.054688 " clip-rule="nonzero"/></clipPath></defs><g clip-path="url(#d25157035c)"><path stroke-linecap="butt" transform="matrix(0.804381, 0, 0, 0.804381, 140.367565, 13.771113)" fill="none" stroke-linejoin="miter" d="M 64.446427 63.260012 L 58.628676 63.260012 C 56.797881 66.586523 54.30664 69.320575 51.130672 71.277631 C 47.949848 73.326956 44.404807 74.307913 40.616956 74.307913 C 34.949747 74.307913 30.108096 72.258588 26.082289 68.02882 C 22.148751 64.017582 20.264537 59.107944 20.264537 53.343611 C 20.264537 47.598702 22.148751 42.684208 26.082289 38.600127 C 27.908228 36.701344 30.108096 35.186204 32.599336 34.059561 C 35.02259 32.932918 37.440988 32.321034 39.859385 32.321034 C 42.20494 32.321034 44.239696 32.617263 46.065635 33.151448 C 51.592013 34.817131 55.748937 38.138786 58.555833 43.218392 L 64.373584 43.218392 C 62.416528 38.362172 59.313403 34.428634 54.991367 31.417777 C 50.611057 28.387496 45.82768 26.872355 40.616956 26.872355 C 33.434606 26.872355 27.374044 29.514139 22.386706 34.739432 C 20.041151 37.162685 18.210356 40.042424 16.938027 43.218392 C 15.568573 46.399216 14.961545 49.79857 14.961545 53.343611 C 14.961545 60.623084 17.379943 66.737066 22.386706 71.889515 C 27.374044 77.187651 33.434606 79.756591 40.616956 79.756591 C 45.82768 79.756591 50.611057 78.241451 55.06421 75.211169 C 59.386246 72.185744 62.489371 68.24735 64.446427 63.260012 Z M 98.877028 62.356755 C 98.877028 65.610422 97.73096 68.490161 95.458249 70.835715 C 93.204963 73.254113 90.398067 74.453599 87.1444 74.453599 C 83.822746 74.453599 81.010994 73.254113 78.743139 70.835715 C 76.470428 68.490161 75.416629 65.610422 75.416629 62.356755 C 75.416629 59.180787 76.470428 56.296192 78.743139 53.877795 C 81.010994 51.459397 83.822746 50.259911 87.1444 50.259911 C 90.398067 50.259911 93.204963 51.459397 95.458249 53.877795 C 97.73096 56.296192 98.877028 59.180787 98.877028 62.356755 Z M 104.175164 78.999021 L 104.175164 45.714489 L 98.877028 45.714489 L 98.877028 51.459397 C 98.561373 50.998056 98.192301 50.628984 97.896071 50.259911 C 94.720103 46.768289 90.859408 44.956919 86.313986 44.956919 C 81.695721 44.956919 77.835026 46.768289 74.659058 50.259911 C 71.628777 53.732108 70.113636 57.73849 70.113636 62.356755 C 70.113636 67.047864 71.628777 71.059101 74.659058 74.453599 C 77.835026 78.022921 81.695721 79.756591 86.313986 79.756591 C 90.859408 79.756591 94.720103 78.022921 97.896071 74.453599 C 98.192301 74.162226 98.561373 73.773728 98.877028 73.326956 L 98.877028 78.999021 Z M 120.885417 34.205247 C 120.20069 33.59822 119.370276 33.229147 118.467019 33.229147 C 117.558906 33.229147 116.728493 33.59822 116.121465 34.205247 C 115.436738 34.889974 115.140509 35.720388 115.140509 36.623645 C 115.140509 37.531758 115.436738 38.362172 116.121465 38.974055 C 116.728493 39.653926 117.558906 39.950156 118.467019 39.950156 C 119.370276 39.950156 120.20069 39.653926 120.885417 38.974055 C 121.497301 38.362172 121.866373 37.531758 121.866373 36.623645 C 121.866373 35.720388 121.497301 34.889974 120.885417 34.205247 Z M 121.181646 78.999021 L 121.181646 45.714489 L 115.898079 45.714489 L 115.898079 78.999021 Z M 138.139567 78.999021 L 138.139567 22.25409 L 132.836574 22.25409 L 132.836574 78.999021 Z M 175.969521 62.356755 C 175.969521 65.610422 174.823453 68.490161 172.550742 70.835715 C 170.297456 73.254113 167.490561 74.453599 164.236893 74.453599 C 160.915239 74.453599 158.108344 73.254113 155.835633 70.835715 C 153.562922 68.490161 152.509122 65.610422 152.509122 62.356755 C 152.509122 59.180787 153.562922 56.296192 155.835633 53.877795 C 158.108344 51.459397 160.915239 50.259911 164.236893 50.259911 C 167.490561 50.259911 170.297456 51.459397 172.550742 53.877795 C 174.823453 56.296192 175.969521 59.180787 175.969521 62.356755 Z M 181.267657 78.999021 L 181.267657 45.714489 L 175.969521 45.714489 L 175.969521 51.459397 C 175.653867 50.998056 175.284794 50.628984 174.988565 50.259911 C 171.812597 46.768289 167.951902 44.956919 163.40648 44.956919 C 158.788214 44.956919 154.927519 46.768289 151.751552 50.259911 C 148.72127 53.732108 147.20613 57.73849 147.20613 62.356755 C 147.20613 67.047864 148.72127 71.059101 151.751552 74.453599 C 154.927519 78.022921 158.788214 79.756591 163.40648 79.756591 C 167.951902 79.756591 171.812597 78.022921 174.988565 74.453599 C 175.284794 74.162226 175.653867 73.773728 175.969521 73.326956 L 175.969521 78.999021 Z M 246.632379 64.702309 C 246.632379 61.065 245.724266 57.961876 243.97117 55.538622 C 242.1598 53.120224 239.741403 51.459397 236.783965 50.628984 C 238.541916 49.871413 240.037632 48.501959 241.1837 46.472059 C 241.717884 45.563946 242.086957 44.641264 242.383186 43.665164 C 242.698841 42.684208 242.844527 41.31961 242.844527 39.581083 C 242.844527 37.920256 242.383186 36.181729 241.625616 34.520902 C 239.37233 29.902636 234.43841 27.557082 226.959832 27.557082 L 213.032192 27.557082 L 213.032192 78.999021 L 228.771202 78.999021 C 233.996494 78.999021 238.153419 77.872378 241.329387 75.434556 C 242.917371 74.235069 244.213981 72.647085 245.190082 70.670604 C 246.098195 68.78639 246.632379 66.829334 246.632379 64.702309 Z M 237.541535 40.411497 C 237.541535 43.218392 236.711121 45.253148 235.050294 46.617746 C 233.389467 47.9872 231.189599 48.671927 228.474972 48.671927 L 218.335185 48.671927 L 218.335185 32.617263 L 226.959832 32.617263 C 233.996494 32.617263 237.541535 35.278472 237.541535 40.411497 Z M 241.329387 63.64851 C 241.329387 66.737066 240.275587 69.247731 238.153419 71.131945 C 236.104094 73.016158 233.46231 73.93884 230.286342 73.93884 L 218.335185 73.93884 L 218.335185 53.950638 L 231.116756 53.950638 C 233.773108 53.950638 236.104094 54.858751 238.153419 56.68469 C 239.056676 57.515104 239.814246 58.49606 240.42613 59.622703 C 241.033157 60.841614 241.329387 62.133369 241.329387 63.64851 Z M 270.913479 52.58604 L 270.913479 45.714489 C 269.859679 45.253148 268.718468 45.029762 267.591825 45.029762 C 263.803973 45.029762 261.069921 47.156786 259.331394 51.236011 L 259.112864 52.58604 L 259.112864 45.714489 L 253.809872 45.714489 L 253.809872 78.999021 L 259.112864 78.999021 L 259.112864 62.356755 C 259.112864 59.622703 259.719892 57.204306 260.997078 55.023863 C 261.604105 53.877795 262.434519 52.901695 263.415475 52.144124 C 264.411001 51.386554 265.615343 50.925213 266.979941 50.925213 C 268.349395 50.925213 269.621725 51.532241 270.913479 52.58604 Z M 282.714094 34.205247 C 282.029367 33.59822 281.198953 33.229147 280.295696 33.229147 C 279.387583 33.229147 278.55717 33.59822 277.950142 34.205247 C 277.265415 34.889974 276.969186 35.720388 276.969186 36.623645 C 276.969186 37.531758 277.265415 38.362172 277.950142 38.974055 C 278.55717 39.653926 279.387583 39.950156 280.295696 39.950156 C 281.198953 39.950156 282.029367 39.653926 282.714094 38.974055 C 283.325978 38.362172 283.69505 37.531758 283.69505 36.623645 C 283.69505 35.720388 283.325978 34.889974 282.714094 34.205247 Z M 283.010323 78.999021 L 283.010323 45.714489 L 277.726756 45.714489 L 277.726756 78.999021 Z M 321.151076 62.356755 C 321.151076 65.610422 320.009864 68.490161 317.737153 70.835715 C 315.483867 73.254113 312.672115 74.453599 309.423304 74.453599 C 306.096793 74.453599 303.289898 73.254113 301.017187 70.835715 C 298.744476 68.490161 297.695533 65.610422 297.695533 62.356755 C 297.695533 59.180787 298.744476 56.296192 301.017187 53.877795 C 303.289898 51.459397 306.096793 50.259911 309.423304 50.259911 C 312.672115 50.259911 315.483867 51.459397 317.737153 53.877795 C 320.009864 56.296192 321.151076 59.180787 321.151076 62.356755 Z M 326.454068 78.999021 L 326.454068 22.25409 L 321.151076 22.25409 L 321.151076 51.459397 C 320.840278 50.998056 320.471205 50.628984 320.174975 50.259911 C 316.999007 46.768289 313.138313 44.956919 308.592891 44.956919 C 303.974625 44.956919 300.11393 46.768289 296.937962 50.259911 C 293.907681 53.732108 292.39254 57.73849 292.39254 62.356755 C 292.39254 67.047864 293.907681 71.059101 296.937962 74.453599 C 300.11393 78.022921 303.974625 79.756591 308.592891 79.756591 C 313.138313 79.756591 316.999007 78.022921 320.174975 74.453599 C 320.471205 74.162226 320.840278 73.773728 321.151076 73.326956 L 321.151076 78.999021 Z M 364.721082 62.356755 C 364.721082 65.610422 363.594439 68.490161 361.321728 70.835715 C 359.049017 73.254113 356.261547 74.453599 352.988454 74.453599 C 349.739643 74.453599 346.952173 73.254113 344.679462 70.835715 C 342.406751 68.490161 341.280108 65.683266 341.280108 62.356755 C 341.280108 59.107944 342.406751 56.296192 344.679462 53.877795 C 346.952173 51.459397 349.739643 50.259911 352.988454 50.259911 C 356.261547 50.259911 359.049017 51.459397 361.321728 53.877795 C 363.594439 56.296192 364.721082 59.180787 364.721082 62.356755 Z M 341.114996 83.544443 L 335.680886 83.544443 C 336.273345 87.089484 337.861329 90.192608 340.595381 92.853817 C 343.921891 96.253171 348.001116 97.913998 352.769924 97.913998 C 357.461033 97.913998 361.545114 96.253171 364.959037 92.853817 C 368.285547 89.512738 370.019218 85.428656 370.019218 80.664705 L 370.019218 45.714489 L 364.721082 45.714489 L 364.721082 51.308854 C 364.424853 50.998056 364.128623 50.628984 363.812969 50.259911 C 360.491314 46.768289 356.630619 44.956919 352.250309 44.956919 C 347.5592 44.956919 343.698505 46.768289 340.522537 50.259911 C 337.492256 53.732108 335.977115 57.73849 335.977115 62.356755 C 335.977115 67.047864 337.492256 71.059101 340.522537 74.453599 C 343.698505 78.022921 347.5592 79.756591 352.250309 79.756591 C 356.776306 79.756591 360.637001 78.022921 363.812969 74.453599 C 364.128623 74.162226 364.424853 73.773728 364.721082 73.477499 L 364.721082 80.664705 C 364.721082 83.986359 363.521596 86.793254 361.176041 89.138809 C 358.825631 91.489219 356.018736 92.615862 352.769924 92.615862 C 349.443414 92.615862 346.636518 91.489219 344.290964 89.138809 C 342.630137 87.477981 341.576337 85.652043 341.114996 83.544443 Z M 413.895166 61.599185 C 413.895166 57.053763 412.083796 53.120224 408.611599 49.72087 C 405.19282 46.472059 401.113595 44.811232 396.49533 44.811232 C 391.653678 44.811232 387.574453 46.544903 384.175099 49.944257 C 380.756321 53.343611 379.095493 57.44226 379.095493 62.211068 C 379.095493 67.047864 380.756321 71.131945 384.175099 74.453599 C 385.763083 76.046439 387.574453 77.265351 389.696622 78.168608 C 391.804221 79.071864 394.314887 79.538062 397.2529 79.538062 C 400.205482 79.538062 403.090077 78.629948 405.95039 76.80401 C 408.834985 74.99264 410.957153 72.423699 412.39945 69.247731 L 406.338888 69.247731 C 405.119977 70.835715 403.697104 72.035202 401.944009 72.943315 C 400.205482 73.846572 398.398968 74.235069 396.49533 74.235069 C 393.63016 74.235069 391.046651 73.326956 388.793365 71.428174 C 386.520654 69.616804 385.078356 67.27125 384.617015 64.386655 L 413.895166 64.386655 Z M 408.295944 59.865514 L 384.689859 59.865514 C 385.005513 58.49606 385.520272 57.204306 386.277843 56.004819 C 388.720521 52.066425 392.115019 50.089943 396.49533 50.089943 C 399.302225 50.089943 401.798322 50.998056 403.993333 52.823995 C 406.266044 54.708208 407.635499 57.053763 408.295944 59.865514 Z M 427.366321 74.307913 C 426.089135 73.404656 425.09361 71.889515 424.573994 69.689647 L 418.979629 69.689647 C 420.106272 76.580624 424.501151 79.979978 432.203116 79.979978 C 434.033911 79.979978 435.694738 79.829435 437.282722 79.368094 C 438.870706 78.926178 440.24016 78.314294 441.51249 77.48388 C 444.08143 75.75021 445.373185 73.108426 445.373185 69.543961 C 445.373185 65.901796 443.712357 63.337711 440.24016 61.672028 C 438.797863 60.992157 437.209879 60.453117 435.476208 60.084044 C 433.7911 59.714971 432.203116 59.25363 430.780243 58.79229 C 429.265103 58.350373 428.046191 57.73849 427.070091 57.053763 C 426.089135 56.373892 425.554951 55.320092 425.554951 53.804952 C 425.554951 52.289811 426.161978 51.163168 427.366321 50.478441 C 428.585232 49.72087 430.022673 49.332373 431.615513 49.332373 C 433.27634 49.332373 434.718638 49.72087 435.845281 50.332754 C 436.971924 50.925213 437.894606 52.144124 438.409365 53.950638 L 444.08143 53.950638 C 443.416128 50.628984 441.973831 48.283429 439.851662 46.986819 C 437.651795 45.641646 435.010011 44.956919 431.7612 44.956919 C 428.585232 44.956919 425.778337 45.860176 423.427926 47.525859 C 421.160071 49.25953 419.955729 51.755627 419.955729 55.096706 C 419.955729 56.68469 420.402501 58.126987 421.232915 59.326474 C 422.155596 60.623084 423.427926 61.599185 425.09361 62.356755 C 426.60875 63.041482 428.196734 63.556241 429.857561 64.017582 C 431.537814 64.386655 433.125798 64.852852 434.62637 65.314193 C 438.040292 66.440836 439.778819 68.101663 439.778819 70.223832 C 439.778819 73.846572 437.355565 75.599667 432.51877 75.599667 C 430.469445 75.599667 428.730918 75.211169 427.366321 74.307913 Z M 427.366321 74.307913 " stroke="#ffffff" stroke-width="5.674822" stroke-opacity="1" stroke-miterlimit="4"/></g><g fill="#000000" fill-opacity="1"><g transform="translate(149.668217, 77.317194)"><g><path d="M 42.539062 -12.660156 L 37.855469 -12.660156 C 36.394531 -9.980469 34.386719 -7.789062 31.828125 -6.207031 C 29.273438 -4.566406 26.414062 -3.773438 23.371094 -3.773438 C 18.804688 -3.773438 14.910156 -5.417969 11.683594 -8.824219 C 8.519531 -12.050781 7 -16.007812 7 -20.632812 C 7 -25.257812 8.519531 -29.210938 11.683594 -32.5 C 13.144531 -34.019531 14.910156 -35.238281 16.917969 -36.152344 C 18.867188 -37.0625 20.8125 -37.550781 22.761719 -37.550781 C 24.648438 -37.550781 26.292969 -37.308594 27.75 -36.878906 C 32.195312 -35.542969 35.542969 -32.863281 37.792969 -28.785156 L 42.480469 -28.785156 C 40.898438 -32.679688 38.402344 -35.847656 34.933594 -38.28125 C 31.402344 -40.714844 27.570312 -41.933594 23.371094 -41.933594 C 17.589844 -41.933594 12.71875 -39.800781 8.703125 -35.601562 C 6.816406 -33.65625 5.355469 -31.34375 4.320312 -28.785156 C 3.226562 -26.230469 2.738281 -23.492188 2.738281 -20.632812 C 2.738281 -14.789062 4.6875 -9.859375 8.703125 -5.722656 C 12.71875 -1.460938 17.589844 0.609375 23.371094 0.609375 C 27.570312 0.609375 31.402344 -0.609375 34.996094 -3.042969 C 38.464844 -5.476562 40.957031 -8.640625 42.539062 -12.660156 Z M 42.539062 -12.660156 "/></g></g></g><g fill="#000000" fill-opacity="1"><g transform="translate(194.032512, 77.317194)"><g><path d="M 25.867188 -13.390625 C 25.867188 -10.773438 24.953125 -8.460938 23.125 -6.574219 C 21.300781 -4.625 19.050781 -3.652344 16.433594 -3.652344 C 13.753906 -3.652344 11.503906 -4.625 9.675781 -6.574219 C 7.851562 -8.460938 7 -10.773438 7 -13.390625 C 7 -15.945312 7.851562 -18.257812 9.675781 -20.207031 C 11.503906 -22.152344 13.753906 -23.125 16.433594 -23.125 C 19.050781 -23.125 21.300781 -22.152344 23.125 -20.207031 C 24.953125 -18.257812 25.867188 -15.945312 25.867188 -13.390625 Z M 30.125 0 L 30.125 -26.777344 L 25.867188 -26.777344 L 25.867188 -22.152344 C 25.621094 -22.519531 25.316406 -22.824219 25.074219 -23.125 C 22.519531 -25.925781 19.414062 -27.386719 15.761719 -27.386719 C 12.050781 -27.386719 8.945312 -25.925781 6.390625 -23.125 C 3.957031 -20.328125 2.738281 -17.101562 2.738281 -13.390625 C 2.738281 -9.617188 3.957031 -6.390625 6.390625 -3.652344 C 8.945312 -0.792969 12.050781 0.609375 15.761719 0.609375 C 19.414062 0.609375 22.519531 -0.792969 25.074219 -3.652344 C 25.316406 -3.894531 25.621094 -4.199219 25.867188 -4.566406 L 25.867188 0 Z M 30.125 0 "/></g></g></g><g fill="#000000" fill-opacity="1"><g transform="translate(228.720646, 77.317194)"><g><path d="M 8.886719 -36.027344 C 8.335938 -36.515625 7.667969 -36.820312 6.9375 -36.820312 C 6.207031 -36.820312 5.539062 -36.515625 5.050781 -36.027344 C 4.503906 -35.480469 4.261719 -34.8125 4.261719 -34.082031 C 4.261719 -33.351562 4.503906 -32.679688 5.050781 -32.195312 C 5.539062 -31.648438 6.207031 -31.402344 6.9375 -31.402344 C 7.667969 -31.402344 8.335938 -31.648438 8.886719 -32.195312 C 9.371094 -32.679688 9.675781 -33.351562 9.675781 -34.082031 C 9.675781 -34.8125 9.371094 -35.480469 8.886719 -36.027344 Z M 9.128906 0 L 9.128906 -26.777344 L 4.867188 -26.777344 L 4.867188 0 Z M 9.128906 0 "/></g></g></g><g fill="#000000" fill-opacity="1"><g transform="translate(242.656762, 77.317194)"><g><path d="M 8.824219 0 L 8.824219 -45.644531 L 4.566406 -45.644531 L 4.566406 0 Z M 8.824219 0 "/></g></g></g><g fill="#000000" fill-opacity="1"><g transform="translate(256.045168, 77.317194)"><g><path d="M 25.867188 -13.390625 C 25.867188 -10.773438 24.953125 -8.460938 23.125 -6.574219 C 21.300781 -4.625 19.050781 -3.652344 16.433594 -3.652344 C 13.753906 -3.652344 11.503906 -4.625 9.675781 -6.574219 C 7.851562 -8.460938 7 -10.773438 7 -13.390625 C 7 -15.945312 7.851562 -18.257812 9.675781 -20.207031 C 11.503906 -22.152344 13.753906 -23.125 16.433594 -23.125 C 19.050781 -23.125 21.300781 -22.152344 23.125 -20.207031 C 24.953125 -18.257812 25.867188 -15.945312 25.867188 -13.390625 Z M 30.125 0 L 30.125 -26.777344 L 25.867188 -26.777344 L 25.867188 -22.152344 C 25.621094 -22.519531 25.316406 -22.824219 25.074219 -23.125 C 22.519531 -25.925781 19.414062 -27.386719 15.761719 -27.386719 C 12.050781 -27.386719 8.945312 -25.925781 6.390625 -23.125 C 3.957031 -20.328125 2.738281 -17.101562 2.738281 -13.390625 C 2.738281 -9.617188 3.957031 -6.390625 6.390625 -3.652344 C 8.945312 -0.792969 12.050781 0.609375 15.761719 0.609375 C 19.414062 0.609375 22.519531 -0.792969 25.074219 -3.652344 C 25.316406 -3.894531 25.621094 -4.199219 25.867188 -4.566406 L 25.867188 0 Z M 30.125 0 "/></g></g></g><g fill="#000000" fill-opacity="1"><g transform="translate(290.733302, 77.317194)"><g/></g></g><g fill="#000000" fill-opacity="1"><g transform="translate(307.164525, 77.317194)"><g><path d="M 31.585938 -11.503906 C 31.585938 -14.421875 30.855469 -16.917969 29.457031 -18.867188 C 27.996094 -20.8125 26.046875 -22.152344 23.675781 -22.824219 C 25.074219 -23.429688 26.292969 -24.527344 27.203125 -26.167969 C 27.628906 -26.898438 27.933594 -27.628906 28.179688 -28.421875 C 28.421875 -29.210938 28.542969 -30.308594 28.542969 -31.707031 C 28.542969 -33.046875 28.179688 -34.445312 27.570312 -35.785156 C 25.742188 -39.496094 21.789062 -41.382812 15.761719 -41.382812 L 4.566406 -41.382812 L 4.566406 0 L 17.222656 0 C 21.421875 0 24.769531 -0.914062 27.324219 -2.859375 C 28.605469 -3.835938 29.636719 -5.113281 30.429688 -6.695312 C 31.160156 -8.214844 31.585938 -9.796875 31.585938 -11.503906 Z M 24.28125 -31.039062 C 24.28125 -28.785156 23.613281 -27.144531 22.273438 -26.046875 C 20.9375 -24.953125 19.171875 -24.40625 16.980469 -24.40625 L 8.824219 -24.40625 L 8.824219 -37.308594 L 15.761719 -37.308594 C 21.421875 -37.308594 24.28125 -35.175781 24.28125 -31.039062 Z M 27.324219 -12.355469 C 27.324219 -9.859375 26.472656 -7.851562 24.769531 -6.328125 C 23.125 -4.808594 20.996094 -4.078125 18.441406 -4.078125 L 8.824219 -4.078125 L 8.824219 -20.144531 L 19.109375 -20.144531 C 21.238281 -20.144531 23.125 -19.414062 24.769531 -17.953125 C 25.5 -17.285156 26.109375 -16.492188 26.59375 -15.578125 C 27.082031 -14.605469 27.324219 -13.570312 27.324219 -12.355469 Z M 27.324219 -12.355469 "/></g></g></g><g fill="#000000" fill-opacity="1"><g transform="translate(339.966104, 77.317194)"><g><path d="M 18.320312 -21.238281 L 18.320312 -26.777344 C 17.464844 -27.144531 16.554688 -27.324219 15.640625 -27.324219 C 12.597656 -27.324219 10.40625 -25.621094 9.007812 -22.335938 L 8.824219 -21.238281 L 8.824219 -26.777344 L 4.566406 -26.777344 L 4.566406 0 L 8.824219 0 L 8.824219 -13.390625 C 8.824219 -15.578125 9.3125 -17.527344 10.347656 -19.292969 C 10.832031 -20.207031 11.503906 -20.996094 12.292969 -21.605469 C 13.085938 -22.214844 14.058594 -22.578125 15.152344 -22.578125 C 16.25 -22.578125 17.285156 -22.09375 18.320312 -21.238281 Z M 18.320312 -21.238281 "/></g></g></g><g fill="#000000" fill-opacity="1"><g transform="translate(358.892445, 77.317194)"><g><path d="M 8.886719 -36.027344 C 8.335938 -36.515625 7.667969 -36.820312 6.9375 -36.820312 C 6.207031 -36.820312 5.539062 -36.515625 5.050781 -36.027344 C 4.503906 -35.480469 4.261719 -34.8125 4.261719 -34.082031 C 4.261719 -33.351562 4.503906 -32.679688 5.050781 -32.195312 C 5.539062 -31.648438 6.207031 -31.402344 6.9375 -31.402344 C 7.667969 -31.402344 8.335938 -31.648438 8.886719 -32.195312 C 9.371094 -32.679688 9.675781 -33.351562 9.675781 -34.082031 C 9.675781 -34.8125 9.371094 -35.480469 8.886719 -36.027344 Z M 9.128906 0 L 9.128906 -26.777344 L 4.867188 -26.777344 L 4.867188 0 Z M 9.128906 0 "/></g></g></g><g fill="#000000" fill-opacity="1"><g transform="translate(372.828548, 77.317194)"><g><path d="M 25.867188 -13.390625 C 25.867188 -10.773438 24.953125 -8.460938 23.125 -6.574219 C 21.300781 -4.625 19.050781 -3.652344 16.433594 -3.652344 C 13.753906 -3.652344 11.503906 -4.625 9.675781 -6.574219 C 7.851562 -8.460938 7 -10.773438 7 -13.390625 C 7 -15.945312 7.851562 -18.257812 9.675781 -20.207031 C 11.503906 -22.152344 13.753906 -23.125 16.433594 -23.125 C 19.050781 -23.125 21.300781 -22.152344 23.125 -20.207031 C 24.953125 -18.257812 25.867188 -15.945312 25.867188 -13.390625 Z M 30.125 0 L 30.125 -45.644531 L 25.867188 -45.644531 L 25.867188 -22.152344 C 25.621094 -22.519531 25.316406 -22.824219 25.074219 -23.125 C 22.519531 -25.925781 19.414062 -27.386719 15.761719 -27.386719 C 12.050781 -27.386719 8.945312 -25.925781 6.390625 -23.125 C 3.957031 -20.328125 2.738281 -17.101562 2.738281 -13.390625 C 2.738281 -9.617188 3.957031 -6.390625 6.390625 -3.652344 C 8.945312 -0.792969 12.050781 0.609375 15.761719 0.609375 C 19.414062 0.609375 22.519531 -0.792969 25.074219 -3.652344 C 25.316406 -3.894531 25.621094 -4.199219 25.867188 -4.566406 L 25.867188 0 Z M 30.125 0 "/></g></g></g><g fill="#000000" fill-opacity="1"><g transform="translate(407.516683, 77.317194)"><g><path d="M 26.230469 -13.390625 C 26.230469 -10.773438 25.316406 -8.460938 23.492188 -6.574219 C 21.664062 -4.625 19.414062 -3.652344 16.796875 -3.652344 C 14.179688 -3.652344 11.929688 -4.625 10.101562 -6.574219 C 8.277344 -8.460938 7.363281 -10.710938 7.363281 -13.390625 C 7.363281 -16.007812 8.277344 -18.257812 10.101562 -20.207031 C 11.929688 -22.152344 14.179688 -23.125 16.796875 -23.125 C 19.414062 -23.125 21.664062 -22.152344 23.492188 -20.207031 C 25.316406 -18.257812 26.230469 -15.945312 26.230469 -13.390625 Z M 7.242188 3.652344 L 2.859375 3.652344 C 3.347656 6.511719 4.625 9.007812 6.816406 11.136719 C 9.492188 13.875 12.78125 15.214844 16.613281 15.214844 C 20.386719 15.214844 23.675781 13.875 26.414062 11.136719 C 29.089844 8.460938 30.492188 5.171875 30.492188 1.339844 L 30.492188 -26.777344 L 26.230469 -26.777344 L 26.230469 -22.273438 C 25.988281 -22.519531 25.742188 -22.824219 25.5 -23.125 C 22.824219 -25.925781 19.71875 -27.386719 16.1875 -27.386719 C 12.414062 -27.386719 9.3125 -25.925781 6.753906 -23.125 C 4.320312 -20.328125 3.105469 -17.101562 3.105469 -13.390625 C 3.105469 -9.617188 4.320312 -6.390625 6.753906 -3.652344 C 9.3125 -0.792969 12.414062 0.609375 16.1875 0.609375 C 19.839844 0.609375 22.945312 -0.792969 25.5 -3.652344 C 25.742188 -3.894531 25.988281 -4.199219 26.230469 -4.441406 L 26.230469 1.339844 C 26.230469 4.015625 25.257812 6.269531 23.371094 8.15625 C 21.484375 10.042969 19.230469 10.953125 16.613281 10.953125 C 13.9375 10.953125 11.683594 10.042969 9.796875 8.15625 C 8.460938 6.816406 7.609375 5.355469 7.242188 3.652344 Z M 7.242188 3.652344 "/></g></g></g><g fill="#000000" fill-opacity="1"><g transform="translate(442.569941, 77.317194)"><g><path d="M 30.734375 -13.996094 C 30.734375 -17.648438 29.273438 -20.8125 26.472656 -23.550781 C 23.734375 -26.167969 20.449219 -27.507812 16.738281 -27.507812 C 12.839844 -27.507812 9.554688 -26.109375 6.816406 -23.371094 C 4.078125 -20.632812 2.738281 -17.34375 2.738281 -13.511719 C 2.738281 -9.617188 4.078125 -6.328125 6.816406 -3.652344 C 8.09375 -2.375 9.554688 -1.398438 11.257812 -0.667969 C 12.964844 0.0625 14.972656 0.425781 17.34375 0.425781 C 19.71875 0.425781 22.03125 -0.304688 24.34375 -1.765625 C 26.65625 -3.226562 28.359375 -5.292969 29.515625 -7.851562 L 24.648438 -7.851562 C 23.675781 -6.574219 22.519531 -5.597656 21.117188 -4.867188 C 19.71875 -4.136719 18.257812 -3.835938 16.738281 -3.835938 C 14.421875 -3.835938 12.355469 -4.566406 10.527344 -6.085938 C 8.703125 -7.546875 7.546875 -9.433594 7.179688 -11.746094 L 30.734375 -11.746094 Z M 26.230469 -15.398438 L 7.242188 -15.398438 C 7.484375 -16.492188 7.910156 -17.527344 8.519531 -18.5 C 10.46875 -21.664062 13.207031 -23.25 16.738281 -23.25 C 18.988281 -23.25 20.996094 -22.519531 22.761719 -21.058594 C 24.585938 -19.535156 25.683594 -17.648438 26.230469 -15.398438 Z M 26.230469 -15.398438 "/></g></g></g><g fill="#000000" fill-opacity="1"><g transform="translate(475.736655, 77.317194)"><g><path d="M 8.398438 -3.773438 C 7.363281 -4.503906 6.574219 -5.722656 6.148438 -7.484375 L 1.644531 -7.484375 C 2.554688 -1.949219 6.085938 0.792969 12.292969 0.792969 C 13.753906 0.792969 15.09375 0.667969 16.371094 0.304688 C 17.648438 -0.0625 18.746094 -0.546875 19.78125 -1.21875 C 21.847656 -2.617188 22.882812 -4.746094 22.882812 -7.609375 C 22.882812 -10.527344 21.542969 -12.597656 18.746094 -13.9375 C 17.589844 -14.484375 16.308594 -14.910156 14.910156 -15.214844 C 13.570312 -15.519531 12.292969 -15.882812 11.136719 -16.25 C 9.921875 -16.613281 8.945312 -17.101562 8.15625 -17.648438 C 7.363281 -18.195312 6.9375 -19.050781 6.9375 -20.265625 C 6.9375 -21.484375 7.425781 -22.394531 8.398438 -22.945312 C 9.371094 -23.550781 10.527344 -23.855469 11.808594 -23.855469 C 13.144531 -23.855469 14.300781 -23.550781 15.214844 -23.066406 C 16.128906 -22.578125 16.859375 -21.605469 17.285156 -20.144531 L 21.847656 -20.144531 C 21.300781 -22.824219 20.144531 -24.707031 18.441406 -25.742188 C 16.675781 -26.839844 14.546875 -27.386719 11.929688 -27.386719 C 9.371094 -27.386719 7.121094 -26.65625 5.234375 -25.316406 C 3.40625 -23.917969 2.433594 -21.910156 2.433594 -19.230469 C 2.433594 -17.953125 2.800781 -16.796875 3.46875 -15.824219 C 4.199219 -14.789062 5.234375 -13.996094 6.574219 -13.390625 C 7.789062 -12.839844 9.066406 -12.414062 10.40625 -12.050781 C 11.746094 -11.746094 13.023438 -11.378906 14.242188 -11.015625 C 16.980469 -10.101562 18.378906 -8.765625 18.378906 -7.058594 C 18.378906 -4.136719 16.433594 -2.738281 12.535156 -2.738281 C 10.894531 -2.738281 9.492188 -3.042969 8.398438 -3.773438 Z M 8.398438 -3.773438 "/></g></g></g><g clip-path="url(#ff900e9899)"><path fill="#a14024" d="M 107.371094 54.175781 C 111.609375 58.414062 117.464844 61.039062 123.929688 61.039062 L 123.929688 58.210938 C 118.246094 58.210938 113.09375 55.898438 109.367188 52.179688 C 105.636719 48.449219 103.335938 43.300781 103.335938 37.617188 L 103.335938 29.054688 L 100.507812 29.054688 L 100.507812 66.09375 L 93.132812 66.09375 L 93.132812 29.054688 L 90.304688 29.054688 L 90.304688 38.105469 C 90.171875 43.59375 87.898438 48.558594 84.273438 52.191406 C 80.546875 55.921875 75.394531 58.21875 69.714844 58.21875 C 64.03125 58.21875 58.882812 55.910156 55.152344 52.191406 C 51.433594 48.472656 49.132812 43.332031 49.121094 37.664062 L 49.121094 29.054688 L 46.292969 29.054688 L 46.292969 66.082031 L 38.917969 66.082031 L 38.917969 29.054688 L 36.089844 29.054688 L 36.089844 38.105469 C 35.960938 43.59375 33.683594 48.558594 30.058594 52.191406 C 26.332031 55.910156 21.179688 58.210938 15.5 58.210938 L 15.5 61.039062 C 21.960938 61.039062 27.816406 58.414062 32.054688 54.175781 C 33.648438 52.582031 35.003906 50.769531 36.089844 48.777344 L 36.089844 66.09375 L 15.5 66.09375 L 15.5 68.921875 L 36.089844 68.921875 L 36.089844 80.113281 L 31.730469 80.113281 L 31.730469 82.941406 L 53.480469 82.941406 L 53.480469 80.113281 L 49.121094 80.113281 L 49.121094 68.910156 L 90.304688 68.910156 L 90.304688 80.101562 L 85.945312 80.101562 L 85.945312 82.929688 L 107.695312 82.929688 L 107.695312 80.101562 L 103.335938 80.101562 L 103.335938 68.910156 L 123.929688 68.910156 L 123.929688 66.082031 L 103.335938 66.082031 L 103.335938 48.777344 C 104.410156 50.769531 105.777344 52.59375 107.371094 54.175781 Z M 46.292969 80.101562 L 38.917969 80.101562 L 38.917969 68.910156 L 46.292969 68.910156 Z M 90.304688 66.09375 L 49.121094 66.09375 L 49.121094 48.777344 C 50.207031 50.769531 51.5625 52.582031 53.15625 54.175781 C 57.394531 58.414062 63.25 61.039062 69.714844 61.039062 C 76.175781 61.039062 82.03125 58.414062 86.269531 54.175781 C 87.863281 52.582031 89.21875 50.769531 90.304688 48.777344 Z M 100.507812 80.101562 L 93.132812 80.101562 L 93.132812 68.910156 L 100.507812 68.910156 Z M 100.507812 80.101562 " fill-opacity="1" fill-rule="nonzero"/></g></svg>